# xmcd
#
# Track frame offsets:
#	150
#	19327
#	42267
#	61222
#	86670
#	104505
#	126607
#	142060
#	160697
#	180280
#	195550
#
# Disc length: 2912 seconds
#
# Revision: 25
# Processed by: cddbd v1.5.2PL0 Copyright (c) Steve Scherf et al.
# Submitted via: audiograbber 1.83.01
#
DISCID=970b5e0b
DTITLE=Lara Fabian - Pure
DYEAR=1997
DGENRE=Pop
TTITLE0=Tout
TTITLE1=J'ai zappé
TTITLE2=La différence
TTITLE3=Humana
TTITLE4=Urgent désir
TTITLE5=Les amoureux de l'an deux mille
TTITLE6=Ici
TTITLE7=Alléluia
TTITLE8=Je t'aime
TTITLE9=Je t'appartiens
TTITLE10=Perdere l'amore
EXTD=MARO\n
EXTT0=
EXTT1=
EXTT2=
EXTT3=
EXTT4=
EXTT5=
EXTT6=
EXTT7=
EXTT8=
EXTT9=
EXTT10=
PLAYORDER=
